<?xml version="1.0" standalone="no"?>
<!DOCTYPE svg PUBLIC "-//W3C//DTD SVG 20010904//EN"
 "http://www.w3.org/TR/2001/REC-SVG-20010904/DTD/svg10.dtd">
<svg version="1.0" xmlns="http://www.w3.org/2000/svg"
 width="500.000000pt" height="500.000000pt" viewBox="0 0 500.000000 500.000000"
 preserveAspectRatio="xMidYMid meet">
<metadata>
Created by potrace 1.14, written by Peter Selinger 2001-2017
</metadata>
<g transform="translate(0.000000,500.000000) scale(0.100000,-0.100000)"
fill="#000000" stroke="none">
<path d="M980 4076 c-105 -23 -178 -73 -235 -162 -45 -71 -58 -127 -53 -227 4
-64 11 -94 32 -135 65 -128 179 -203 315 -207 165 -6 294 75 363 227 l22 48
215 0 216 0 188 -186 188 -186 45 5 c62 7 95 53 79 114 -8 32 -376 406 -420
427 -22 11 -72 15 -195 15 -336 0 -330 0 -330 16 0 26 -46 108 -82 144 -94 96
-219 134 -348 107z"/>
<path d="M2880 4073 c-262 -35 -348 -78 -402 -199 -18 -41 -19 -96 -19 -1497
l-1 -1455 22 -51 c84 -193 427 -246 625 -95 27 21 35 22 75 13 68 -16 233 -6
316 19 75 23 172 80 219 128 44 47 91 125 112 189 19 58 21 60 61 67 128 22
259 134 335 289 65 133 79 190 83 354 4 151 -11 235 -58 329 -29 58 -95 139
-138 169 -19 13 -19 15 9 68 68 131 101 262 106 414 10 300 -117 534 -322 595
-24 7 -43 16 -43 19 -1 3 -3 33 -5 67 -6 74 -36 175 -72 240 -40 73 -147 174
-233 222 -69 39 -202 87 -268 98 -15 2 -38 7 -52 10 -27 7 -310 13 -350 7z"/>
<path d="M955 2767 c-109 -37 -184 -99 -232 -195 -25 -52 -28 -66 -28 -162 1
-119 18 -170 83 -242 82 -91 169 -128 295 -125 69 2 92 7 142 32 77 38 147
110 181 184 l27 58 427 0 c318 0 435 3 457 12 56 23 70 98 28 144 -22 22 -34
27 -78 28 -29 0 -229 1 -445 1 -354 0 -394 2 -399 17 -33 99 -110 187 -201
229 -68 31 -192 40 -257 19z"/>
<path d="M2042 1385 l-186 -185 -217 0 -218 0 -24 54 c-133 290 -525 296 -675
12 -24 -46 -27 -62 -27 -156 0 -92 3 -112 26 -160 60 -128 183 -210 324 -215
148 -5 284 78 348 213 26 56 32 62 60 62 18 1 124 1 237 1 113 0 219 4 235 9
31 10 402 375 424 417 34 66 -11 133 -91 133 -26 0 -56 -26 -216 -185z"/>
</g>
</svg>
